<?xml version="1.0" encoding="iso-8859-1"?>
<!-- Generator: Adobe Illustrator 19.0.0, SVG Export Plug-In . SVG Version: 6.00 Build 0)  -->
<svg version="1.1" id="Layer_1" xmlns="http://www.w3.org/2000/svg" xmlns:xlink="http://www.w3.org/1999/xlink" x="0px" y="0px"
	 viewBox="0 0 512 512" style="enable-background:new 0 0 512 512;" xml:space="preserve">
<g>
	<g>
		<path d="M470.456,116.145C443.978,75.625,406.8,43.533,362.94,23.341c-5.024-2.31-10.964-0.115-13.275,4.905
			c-2.311,5.021-0.115,10.965,4.905,13.275c40.438,18.615,74.716,48.206,99.133,85.572C478.749,165.425,491.987,210,491.987,256
			c0,130.124-105.863,235.984-235.985,235.984S20.015,386.124,20.015,256.001S125.876,20.015,256,20.015
			c5.528,0,10.007-4.479,10.007-10.007C266.007,4.479,261.528,0,256,0C114.84,0,0,114.842,0,256.001C0,397.16,114.84,512,256,512
			s256-114.84,256-255.999C512,206.101,497.635,157.74,470.456,116.145z"/>
	</g>
</g>
<g>
	<g>
		<path d="M410.291,391.238c-15.76-28.293-45.65-45.868-78.005-45.868c-31.443-0.001-61.451,17.469-78.312,45.591
			c-2.842,4.741-1.304,10.887,3.437,13.729c4.737,2.839,10.885,1.302,13.729-3.437c13.264-22.124,36.695-35.869,61.146-35.869
			c25.101,0,48.29,13.639,60.52,35.593c1.831,3.288,5.239,5.141,8.752,5.14c1.647,0,3.318-0.408,4.861-1.266
			C411.247,402.159,412.981,396.066,410.291,391.238z"/>
	</g>
</g>
<g>
	<g>
		<path d="M291.072,233.183c-0.641-1.402-1.597-2.638-2.795-3.609c-9.79-7.943-24.498-15.458-41.528-24.156
			c-3.98-2.032-8.121-4.147-12.392-6.365c-6.351-3.298-11.372-6.262-16.69-9.4c-6.554-3.868-13.331-7.87-23.136-12.835
			c-4.93-2.499-10.952-0.527-13.45,4.406c-2.498,4.93-0.524,10.952,4.406,13.449c9.229,4.675,15.725,8.509,22.005,12.216
			c5.312,3.137,10.807,6.379,17.64,9.927c1.841,0.957,3.659,1.893,5.449,2.813c-4.274,4.039-7.71,9.015-9.985,14.607
			c-4.186,10.286-4.106,21.612,0.221,31.075c4.29,9.382,11.977,16.532,21.645,20.133c4.391,1.636,8.951,2.45,13.501,2.45
			c5.469,0,10.921-1.177,16.042-3.52c9.382-4.29,16.534-11.978,20.135-21.645C295.743,253.059,295.364,242.568,291.072,233.183z
			 M273.386,255.742c-1.736,4.658-5.181,8.363-9.702,10.43c-4.523,2.067-9.579,2.247-14.233,0.515
			c-4.658-1.736-8.363-5.181-10.429-9.702c-2.043-4.466-2.001-10.009,0.115-15.206c2.239-5.501,6.379-9.672,11.669-11.758
			c9.212,4.836,17.134,9.296,22.867,13.551C274.95,247.536,274.862,251.782,273.386,255.742z"/>
	</g>
</g>
<g>
	<g>
		<path d="M476.625,174.9c-2.795-4.769-8.927-6.366-13.695-3.571l-3.129,1.835c-20.596,12.082-22.279,13.07-47.608,25.316
			c-16.876,8.159-30.769,16.237-41.286,24.007c-1.364,1.007-2.45,2.346-3.154,3.887c-4.291,9.383-4.67,19.876-1.07,29.544
			c3.601,9.667,10.753,17.355,20.135,21.645c5.122,2.343,10.574,3.52,16.042,3.52c4.549,0,9.109-0.814,13.501-2.45
			c9.667-3.601,17.355-10.753,21.645-20.135c4.806-10.51,4.85-23.142,0.116-33.789c-2.091-4.706-5.037-8.865-8.69-12.345
			c18.329-8.932,22.231-11.22,40.498-21.935l3.126-1.835C477.822,185.8,479.42,179.669,476.625,174.9z M419.804,250.174
			c-2.068,4.522-5.772,7.967-10.43,9.702c-4.655,1.732-9.712,1.55-14.233-0.515c-4.522-2.068-7.967-5.772-9.702-10.43
			c-1.456-3.907-1.561-8.091-0.338-12.009c6.559-4.637,14.515-9.434,23.768-14.339c6.379,2.542,9.476,6.906,10.965,10.256
			C422.234,238.242,422.222,244.885,419.804,250.174z"/>
	</g>
</g>
<g>
	<g>
		<circle cx="323.131" cy="20.015" r="10.007"/>
	</g>
</g>
<g>
</g>
<g>
</g>
<g>
</g>
<g>
</g>
<g>
</g>
<g>
</g>
<g>
</g>
<g>
</g>
<g>
</g>
<g>
</g>
<g>
</g>
<g>
</g>
<g>
</g>
<g>
</g>
<g>
</g>
</svg>
