<?xml version="1.0" encoding="iso-8859-1"?>
<!-- Generator: Adobe Illustrator 19.0.0, SVG Export Plug-In . SVG Version: 6.00 Build 0)  -->
<svg version="1.1" id="Layer_1" xmlns="http://www.w3.org/2000/svg" xmlns:xlink="http://www.w3.org/1999/xlink" x="0px" y="0px"
	 viewBox="0 0 511.999 511.999" style="enable-background:new 0 0 511.999 511.999;" xml:space="preserve">
<circle style="fill:#FDDF6D;" cx="256.001" cy="256.001" r="245.993"/>
<path style="fill:#FCC56B;" d="M308.715,465.677c-135.858,0-245.992-110.134-245.992-245.992
	c0-72.584,31.443-137.816,81.444-182.842c-79.64,40.719-134.16,123.57-134.16,219.156c0,135.858,110.134,245.992,245.992,245.992
	c63.274,0,120.962-23.897,164.548-63.149C386.997,455.998,348.986,465.677,308.715,465.677z"/>
<g>
	<circle style="fill:#FFFFFF;" cx="213.423" cy="179.852" r="30.022"/>
	<circle style="fill:#FFFFFF;" cx="382.44" cy="179.852" r="30.022"/>
</g>
<g>
	<path style="fill:#F9A880;" d="M150.287,240.771c-18.268,0-33.079,14.809-33.079,33.078h66.156
		C183.366,255.58,168.555,240.771,150.287,240.771z"/>
	<path style="fill:#F9A880;" d="M438.814,236.34c-18.268,0-33.079,14.809-33.079,33.078h66.156
		C471.892,251.149,457.083,236.34,438.814,236.34z"/>
</g>
<path style="fill:#7F184C;" d="M302.033,390.109c-26.509,0-50.999-14.4-63.909-37.579c-2.69-4.829-0.957-10.923,3.872-13.613
	c4.826-2.693,10.923-0.957,13.611,3.872c9.382,16.842,27.172,27.304,46.426,27.304c18.764,0,36.756-10.568,46.954-27.58
	c2.843-4.739,8.985-6.281,13.729-3.437c4.741,2.842,6.279,8.988,3.437,13.729C352.359,375.815,327.791,390.109,302.033,390.109z"/>
<path d="M470.875,116.792c-26.202-40.364-63.038-72.453-106.527-92.796c-5.004-2.342-10.964-0.181-13.306,4.825
	c-2.342,5.006-0.181,10.963,4.825,13.304c40.095,18.755,74.058,48.343,98.22,85.564c24.791,38.193,37.896,82.562,37.896,128.311
	c0,130.123-105.863,235.985-235.985,235.985S20.015,386.123,20.015,255.999S125.877,20.015,255.999,20.015
	c5.528,0,10.007-4.481,10.007-10.007S261.527,0,255.999,0C114.84,0,0,114.841,0,255.999s114.84,255.999,255.999,255.999
	s255.999-114.84,255.999-255.999C512,206.374,497.78,158.237,470.875,116.792z"/>
<path d="M252.936,179.856c0-22.072-17.957-40.029-40.029-40.029s-40.029,17.957-40.029,40.029s17.957,40.029,40.029,40.029
	S252.936,201.928,252.936,179.856z M212.906,199.87c-11.036,0-20.015-8.979-20.015-20.015s8.979-20.015,20.015-20.015
	s20.015,8.979,20.015,20.015S223.944,199.87,212.906,199.87z"/>
<path d="M381.929,219.885c22.072,0,40.029-17.957,40.029-40.029s-17.957-40.029-40.029-40.029S341.9,157.783,341.9,179.856
	S359.857,219.885,381.929,219.885z M381.929,159.841c11.036,0,20.015,8.979,20.015,20.015s-8.979,20.015-20.015,20.015
	s-20.015-8.979-20.015-20.015S370.893,159.841,381.929,159.841z"/>
<path d="M255.607,342.791c-2.69-4.829-8.785-6.563-13.611-3.872c-4.829,2.69-6.562,8.784-3.872,13.613
	c12.912,23.18,37.401,37.578,63.909,37.578c25.756,0,50.326-14.293,64.122-37.303c2.842-4.739,1.304-10.887-3.437-13.729
	c-4.743-2.842-10.885-1.304-13.729,3.437c-10.199,17.012-28.191,27.579-46.954,27.579
	C282.779,370.095,264.99,359.633,255.607,342.791z"/>
<circle cx="324.01" cy="20.989" r="10.007"/>
<g>
</g>
<g>
</g>
<g>
</g>
<g>
</g>
<g>
</g>
<g>
</g>
<g>
</g>
<g>
</g>
<g>
</g>
<g>
</g>
<g>
</g>
<g>
</g>
<g>
</g>
<g>
</g>
<g>
</g>
</svg>
