<?xml version="1.0" encoding="iso-8859-1"?>
<!-- Generator: Adobe Illustrator 19.0.0, SVG Export Plug-In . SVG Version: 6.00 Build 0)  -->
<svg version="1.1" id="Layer_1" xmlns="http://www.w3.org/2000/svg" xmlns:xlink="http://www.w3.org/1999/xlink" x="0px" y="0px"
	 viewBox="0 0 511.999 511.999" style="enable-background:new 0 0 511.999 511.999;" xml:space="preserve">
<g>
	<g>
		<path d="M470.875,116.792c-26.202-40.364-63.038-72.453-106.527-92.796c-5.004-2.342-10.964-0.181-13.306,4.825
			c-2.342,5.006-0.181,10.963,4.825,13.304c40.095,18.755,74.058,48.343,98.22,85.564c24.791,38.193,37.896,82.562,37.896,128.311
			c0,130.123-105.863,235.985-235.985,235.985S20.015,386.123,20.015,255.999S125.877,20.015,255.999,20.015
			c5.528,0,10.007-4.481,10.007-10.007S261.527,0,255.999,0C114.84,0,0,114.841,0,255.999s114.84,255.999,255.999,255.999
			s255.999-114.84,255.999-255.999C512,206.374,497.78,158.237,470.875,116.792z"/>
	</g>
</g>
<g>
	<g>
		<path d="M212.906,139.826c-22.072,0-40.029,17.957-40.029,40.029c0,22.072,17.957,40.029,40.029,40.029
			c22.072,0,40.029-17.957,40.029-40.029C252.936,157.783,234.979,139.826,212.906,139.826z M212.906,199.87
			c-11.036,0-20.015-8.979-20.015-20.015s8.979-20.015,20.015-20.015s20.015,8.979,20.015,20.015S223.944,199.87,212.906,199.87z"/>
	</g>
</g>
<g>
	<g>
		<path d="M381.929,139.826c-22.072,0-40.029,17.957-40.029,40.029c0,22.072,17.957,40.029,40.029,40.029
			s40.029-17.957,40.029-40.029C421.958,157.784,404.001,139.826,381.929,139.826z M381.929,199.87
			c-11.036,0-20.015-8.979-20.015-20.015s8.979-20.015,20.015-20.015s20.015,8.979,20.015,20.015S392.965,199.87,381.929,199.87z"/>
	</g>
</g>
<g>
	<g>
		<path d="M362.717,339.078c-4.743-2.842-10.885-1.304-13.729,3.437c-10.199,17.012-28.191,27.579-46.954,27.579
			c-19.255,0.001-37.044-10.461-46.427-27.303c-2.69-4.829-8.785-6.563-13.611-3.872c-4.829,2.69-6.562,8.784-3.872,13.613
			c12.912,23.18,37.401,37.578,63.909,37.578c25.756,0,50.326-14.293,64.122-37.303C368.997,348.067,367.458,341.92,362.717,339.078
			z"/>
	</g>
</g>
<g>
	<g>
		<circle cx="324.01" cy="20.989" r="10.007"/>
	</g>
</g>
<g>
</g>
<g>
</g>
<g>
</g>
<g>
</g>
<g>
</g>
<g>
</g>
<g>
</g>
<g>
</g>
<g>
</g>
<g>
</g>
<g>
</g>
<g>
</g>
<g>
</g>
<g>
</g>
<g>
</g>
</svg>
