<?xml version="1.0" encoding="iso-8859-1"?>
<!-- Generator: Adobe Illustrator 19.0.0, SVG Export Plug-In . SVG Version: 6.00 Build 0)  -->
<svg version="1.1" id="Layer_1" xmlns="http://www.w3.org/2000/svg" xmlns:xlink="http://www.w3.org/1999/xlink" x="0px" y="0px"
	 viewBox="0 0 511.999 511.999" style="enable-background:new 0 0 511.999 511.999;" xml:space="preserve">
<g>
	<g>
		<path d="M467.285,111.408c-28.561-41.657-68.301-73.694-114.923-92.65c-5.124-2.082-10.959,0.383-13.04,5.501
			c-2.081,5.12,0.382,10.957,5.501,13.039c42.979,17.474,79.618,47.014,105.954,85.427c26.958,39.321,41.209,85.406,41.209,133.274
			c0,130.123-105.863,235.985-235.985,235.985S20.015,386.123,20.015,255.999S125.877,20.015,255.999,20.015
			c5.528,0,10.007-4.481,10.007-10.007S261.527,0,255.999,0C114.84,0,0,114.841,0,255.999s114.84,255.999,255.999,255.999
			s255.999-114.84,255.999-255.999C512,204.075,496.538,154.075,467.285,111.408z"/>
	</g>
</g>
<g>
	<g>
		<path d="M213.164,139.826c-22.072,0-40.029,17.957-40.029,40.029c0,22.072,17.957,40.029,40.029,40.029
			s40.029-17.957,40.029-40.029C253.193,157.783,235.236,139.826,213.164,139.826z M213.164,199.87
			c-11.036,0-20.015-8.979-20.015-20.015s8.979-20.015,20.015-20.015s20.015,8.979,20.015,20.015S224.2,199.87,213.164,199.87z"/>
	</g>
</g>
<g>
	<g>
		<path d="M382.186,139.826c-22.072,0-40.029,17.957-40.029,40.029c0,22.072,17.957,40.029,40.029,40.029
			s40.029-17.957,40.029-40.029C422.216,157.783,404.258,139.826,382.186,139.826z M382.186,199.87
			c-11.036,0-20.015-8.979-20.015-20.015s8.979-20.015,20.015-20.015s20.015,8.979,20.015,20.015S393.222,199.87,382.186,199.87z"/>
	</g>
</g>
<g>
	<g>
		<path d="M395.876,335.159H215.279c-5.528,0-10.007,4.479-10.007,10.007c0,5.527,4.479,10.007,10.007,10.007h180.598
			c5.528,0,10.007-4.481,10.007-10.007C405.884,339.639,401.404,335.159,395.876,335.159z"/>
	</g>
</g>
<g>
	<g>
		<circle cx="317.005" cy="18.747" r="10.007"/>
	</g>
</g>
<g>
</g>
<g>
</g>
<g>
</g>
<g>
</g>
<g>
</g>
<g>
</g>
<g>
</g>
<g>
</g>
<g>
</g>
<g>
</g>
<g>
</g>
<g>
</g>
<g>
</g>
<g>
</g>
<g>
</g>
</svg>
