<?xml version="1.0" encoding="iso-8859-1"?>
<!-- Generator: Adobe Illustrator 19.0.0, SVG Export Plug-In . SVG Version: 6.00 Build 0)  -->
<svg version="1.1" id="Layer_1" xmlns="http://www.w3.org/2000/svg" xmlns:xlink="http://www.w3.org/1999/xlink" x="0px" y="0px"
	 viewBox="0 0 512 512" style="enable-background:new 0 0 512 512;" xml:space="preserve">
<g>
	<g>
		<path d="M451.689,236.047c-12.617-22.65-36.545-36.72-62.448-36.72c-25.166,0-49.173,13.965-62.65,36.444
			c-2.841,4.739-1.302,10.885,3.439,13.727c4.739,2.839,10.887,1.302,13.729-3.437c9.881-16.483,27.309-26.72,45.483-26.72
			c18.648,0,35.877,10.133,44.964,26.443c1.831,3.288,5.238,5.14,8.752,5.14c1.648,0,3.318-0.408,4.861-1.266
			C452.646,246.969,454.379,240.875,451.689,236.047z"/>
	</g>
</g>
<g>
	<g>
		<path d="M277.906,236.047c-12.617-22.65-36.545-36.72-62.448-36.72c-25.166,0-49.172,13.965-62.649,36.443
			c-2.842,4.741-1.304,10.887,3.437,13.729c4.741,2.839,10.887,1.302,13.729-3.437c9.881-16.483,27.309-26.72,45.483-26.72
			c18.648,0,35.878,10.133,44.964,26.443c1.831,3.288,5.238,5.141,8.752,5.14c1.648,0,3.318-0.408,4.861-1.266
			C278.861,246.969,280.596,240.875,277.906,236.047z"/>
	</g>
</g>
<g>
	<g>
		<path d="M348.411,266.007c-5.527,0-10.007,4.479-10.007,10.007v52.979c-9.451-7.774-21.542-12.448-34.707-12.448
			c-13.164,0-25.256,4.674-34.707,12.448v-52.979c0-5.528-4.481-10.007-10.007-10.007c-5.527,0-10.007,4.479-10.007,10.007v158.783
			c0,5.528,4.481,10.007,10.007,10.007c5.527,0,10.007-4.479,10.007-10.007v-21.256c9.451,7.774,21.542,12.448,34.707,12.448
			c13.164,0,25.256-4.674,34.707-12.448v2.44c0,5.528,4.481,10.007,10.007,10.007c5.527,0,10.007-4.479,10.007-10.007V276.014
			C358.418,270.486,353.938,266.007,348.411,266.007z M303.697,405.974c-19.138,0-34.707-15.569-34.707-34.707
			s15.57-34.708,34.707-34.708c19.138,0,34.707,15.57,34.707,34.708C338.404,390.406,322.835,405.974,303.697,405.974z"/>
	</g>
</g>
<g>
	<g>
		<path d="M355.651,20.124c-5.093-2.151-10.963,0.229-13.116,5.317c-2.152,5.09,0.228,10.963,5.319,13.115
			c87.556,37.034,144.132,122.386,144.132,217.444c0,55.964-19.594,107.431-52.266,147.927V276.015
			c0-5.528-4.481-10.007-10.007-10.007c-5.527,0-10.007,4.479-10.007,10.007v149.787c-42.464,40.954-100.189,66.184-163.702,66.184
			c-23.744,0-46.674-3.54-68.307-10.094V276.014c0-5.528-4.481-10.007-10.007-10.007c-5.527,0-10.007,4.479-10.007,10.007v198.807
			C81.186,439.784,20.015,354.908,20.015,255.999c0-130.122,105.863-235.985,235.985-235.985c5.527,0,10.007-4.479,10.007-10.007
			C266.007,4.479,261.526,0,255.999,0C114.841,0,0,114.84,0,255.999c0,112.362,72.765,208.044,173.647,242.409
			c0.574,0.253,1.175,0.452,1.8,0.595c25.34,8.422,52.421,12.996,80.552,12.996c69.886,0,133.308-28.159,179.55-73.714
			c0.861-0.62,1.616-1.373,2.242-2.228C483.638,389.773,512,326.14,512,256.001C512,152.884,450.628,60.296,355.651,20.124z"/>
	</g>
</g>
<g>
	<g>
		<circle cx="348.415" cy="449.356" r="10.007"/>
	</g>
</g>
<g>
	<g>
		<circle cx="258.976" cy="467.542" r="10.007"/>
	</g>
</g>
<g>
	<g>
		<circle cx="315.591" cy="17.884" r="10.007"/>
	</g>
</g>
<g>
</g>
<g>
</g>
<g>
</g>
<g>
</g>
<g>
</g>
<g>
</g>
<g>
</g>
<g>
</g>
<g>
</g>
<g>
</g>
<g>
</g>
<g>
</g>
<g>
</g>
<g>
</g>
<g>
</g>
</svg>
