<?xml version="1.0" encoding="iso-8859-1"?>
<!-- Generator: Adobe Illustrator 19.0.0, SVG Export Plug-In . SVG Version: 6.00 Build 0)  -->
<svg version="1.1" id="Capa_1" xmlns="http://www.w3.org/2000/svg" xmlns:xlink="http://www.w3.org/1999/xlink" x="0px" y="0px"
	 viewBox="0 0 512 512" style="enable-background:new 0 0 512 512;" xml:space="preserve">
<g>
	<g>
		<path d="M242.062,102.868c-4.203,0-7.611,3.408-7.611,7.611v20.17c0,4.203,3.408,7.611,7.611,7.611s7.611-3.408,7.611-7.611
			v-20.17C249.673,106.276,246.266,102.868,242.062,102.868z"/>
	</g>
</g>
<g>
	<g>
		<path d="M242.062,157.169c-4.203,0-7.611,3.408-7.611,7.611v20.17c0,4.203,3.408,7.611,7.611,7.611s7.611-3.408,7.611-7.611
			v-20.17C249.673,160.577,246.266,157.169,242.062,157.169z"/>
	</g>
</g>
<g>
	<g>
		<path d="M279.298,140.103h-20.17c-4.203,0-7.611,3.408-7.611,7.611s3.408,7.611,7.611,7.611h20.17
			c4.203,0,7.611-3.408,7.611-7.611S283.502,140.103,279.298,140.103z"/>
	</g>
</g>
<g>
	<g>
		<path d="M224.996,140.103h-20.17c-4.203,0-7.611,3.408-7.611,7.611s3.408,7.611,7.611,7.611h20.17
			c4.203,0,7.611-3.408,7.611-7.611S229.199,140.103,224.996,140.103z"/>
	</g>
</g>
<g>
	<g>
		<path d="M450.662,210.373c-4.203,0-7.611,3.408-7.611,7.611v20.17c0,4.203,3.408,7.611,7.611,7.611s7.611-3.408,7.611-7.611
			v-20.17C458.273,213.781,454.866,210.373,450.662,210.373z"/>
	</g>
</g>
<g>
	<g>
		<path d="M450.662,264.675c-4.203,0-7.611,3.408-7.611,7.611v20.17c0,4.203,3.408,7.611,7.611,7.611s7.611-3.408,7.611-7.611
			v-20.17C458.273,268.083,454.866,264.675,450.662,264.675z"/>
	</g>
</g>
<g>
	<g>
		<path d="M487.897,247.609h-20.17c-4.203,0-7.611,3.408-7.611,7.611s3.408,7.611,7.611,7.611h20.17
			c4.203,0,7.611-3.408,7.611-7.611S492.101,247.609,487.897,247.609z"/>
	</g>
</g>
<g>
	<g>
		<path d="M433.596,247.609h-20.17c-4.203,0-7.611,3.408-7.611,7.611s3.408,7.611,7.611,7.611h20.17
			c4.203,0,7.611-3.408,7.611-7.611S437.799,247.609,433.596,247.609z"/>
	</g>
</g>
<g>
	<g>
		<path d="M495.827,80.493l-22.874-4.638c-19.588-3.971-34.811-19.194-38.782-38.782l-4.638-22.874
			C427.839,5.838,420.698,0,412.168,0s-15.671,5.838-17.366,14.198l-4.638,22.874c-3.971,19.588-19.194,34.811-38.782,38.782
			l-22.875,4.638c-8.359,1.695-14.198,8.836-14.198,17.366c0,8.53,5.839,15.671,14.198,17.367l22.875,4.638
			c19.588,3.971,34.811,19.194,38.782,38.782l4.638,22.874c1.695,8.36,8.836,14.198,17.366,14.198s15.671-5.838,17.366-14.198
			l4.638-22.874c3.971-19.588,19.194-34.811,38.782-38.782l22.874-4.638c8.36-1.695,14.198-8.836,14.198-17.366
			C510.026,89.329,504.187,82.188,495.827,80.493z M492.804,100.305l-22.874,4.638c-25.596,5.19-45.487,25.081-50.676,50.676
			l-4.638,22.874c-0.269,1.327-1.092,2-2.447,2c-1.355,0-2.178-0.673-2.447-2l-4.638-22.874
			c-5.19-25.595-25.08-45.487-50.676-50.676l-22.875-4.638c-1.327-0.269-2-1.092-2-2.447s0.673-2.178,2-2.447l22.875-4.638
			c25.596-5.19,45.487-25.081,50.676-50.676l4.638-22.874c0.269-1.327,1.092-2,2.447-2c1.354,0,2.178,0.673,2.447,2l4.638,22.874
			c5.19,25.595,25.08,45.487,50.676,50.676l22.874,4.638c1.327,0.269,2,1.092,2,2.447S494.131,100.036,492.804,100.305z"/>
	</g>
</g>
<g>
	<g>
		<path d="M405.598,360.314c-1.384-3.97-5.727-6.065-9.693-4.684c-31.35,10.924-65.193,13.353-97.87,7.026
			c-4.123-0.8-8.12,1.899-8.919,6.026c-0.799,4.127,1.899,8.12,6.026,8.919c12.826,2.483,25.817,3.718,38.787,3.718
			c22.738,0,45.409-3.795,66.986-11.313C404.884,368.622,406.981,364.283,405.598,360.314z"/>
	</g>
</g>
<g>
	<g>
		<path d="M506.512,266.899c-3.412-1.033-7.081,0.441-8.833,3.546c-8.363,14.825-18.752,28.49-30.876,40.614
			c-12.453,12.452-26.495,23.056-41.738,31.516c-3.676,2.04-5.001,6.674-2.961,10.348c2.04,3.676,6.672,5.001,10.348,2.961
			c16.482-9.148,31.661-20.608,45.115-34.062c5.173-5.173,10.054-10.607,14.624-16.275c-9.592,45.449-32.211,87.446-65.402,120.637
			c-45.523,45.523-106.05,70.593-170.428,70.593s-124.905-25.07-170.428-70.594c-34.889-34.89-57.96-78.895-66.719-127.258
			c-8.56-47.269-3.005-95.446,16.064-139.325c1.675-3.855-0.091-8.339-3.947-10.014c-3.856-1.675-8.339,0.092-10.014,3.947
			C1.044,200.183-4.863,251.397,4.236,301.637c9.313,51.428,33.841,98.218,70.933,135.31C123.568,485.346,187.917,512,256.361,512
			c68.445,0,132.794-26.654,181.191-75.053c43.424-43.424,69.827-101.028,74.346-162.203
			C512.162,271.19,509.923,267.93,506.512,266.899z"/>
	</g>
</g>
<g>
	<g>
		<path d="M245.219,5.604c-1.031-3.411-4.275-5.641-7.846-5.387C176.198,4.737,118.593,31.14,75.17,74.563
			c-14.843,14.843-27.805,31.405-38.528,49.228c-2.167,3.602-1.003,8.278,2.599,10.446c3.603,2.169,8.278,1.004,10.446-2.599
			c10.084-16.763,22.281-32.344,36.247-46.312c33.191-33.19,75.188-55.808,120.637-65.401c-5.668,4.57-11.101,9.451-16.275,14.624
			c-34.091,34.091-54.988,79.296-58.841,127.287c-3.809,47.445,9.151,94.857,36.492,133.502c1.483,2.097,3.833,3.216,6.22,3.216
			c1.52,0,3.055-0.454,4.389-1.398c3.432-2.429,4.246-7.178,1.818-10.61c-25.285-35.737-37.27-79.595-33.745-123.491
			c3.564-44.39,22.895-86.204,54.431-117.741c12.124-12.124,25.789-22.513,40.614-30.876C244.778,12.685,246.25,9.016,245.219,5.604
			z"/>
	</g>
</g>
<g>
	<g>
		<path d="M313.667,316.737l-19.408-3.935c-16.163-3.278-28.726-15.839-32.003-32.004l-3.935-19.408
			c-1.549-7.637-8.072-12.971-15.865-12.971c-7.793,0-14.316,5.333-15.865,12.971l-3.935,19.408
			c-3.277,16.164-15.839,28.726-32.004,32.004l-19.408,3.935c-7.637,1.549-12.971,8.073-12.971,15.865
			c0,7.792,5.333,14.316,12.971,15.865l19.408,3.934c16.164,3.277,28.726,15.838,32.004,32.003l3.934,19.408
			c1.549,7.637,8.072,12.971,15.865,12.971c7.793,0,14.316-5.334,15.865-12.971l3.935-19.408
			c3.277-16.164,15.838-28.726,32.003-32.003l19.408-3.934c7.637-1.549,12.971-8.072,12.971-15.865S321.304,318.286,313.667,316.737
			z M310.643,333.548l-19.408,3.934c-22.172,4.496-39.402,21.725-43.897,43.897l-3.935,19.408c-0.073,0.362-0.156,0.773-0.946,0.773
			s-0.872-0.411-0.946-0.773l-3.934-19.408c-4.496-22.172-21.726-39.402-43.897-43.897l-19.408-3.934
			c-0.362-0.073-0.772-0.156-0.772-0.946s0.41-0.872,0.772-0.946l19.408-3.935c22.171-4.496,39.402-21.726,43.897-43.897
			l3.934-19.408c0.073-0.362,0.156-0.772,0.946-0.772s0.872,0.41,0.946,0.772l3.935,19.408
			c4.496,22.171,21.725,39.402,43.897,43.897l19.408,3.935c0.362,0.073,0.773,0.156,0.773,0.946S311.006,333.474,310.643,333.548z"
			/>
	</g>
</g>
<g>
</g>
<g>
</g>
<g>
</g>
<g>
</g>
<g>
</g>
<g>
</g>
<g>
</g>
<g>
</g>
<g>
</g>
<g>
</g>
<g>
</g>
<g>
</g>
<g>
</g>
<g>
</g>
<g>
</g>
</svg>
