<svg id="Capa_1" enable-background="new 0 0 512 512" height="512" viewBox="0 0 512 512" width="512" xmlns="http://www.w3.org/2000/svg"><g><path d="m511.59 412.015-9.231-35.295c-2.017-7.721-8.44-13.339-16.361-14.315l-32.914-4.05c-.816-.1-1.572-.489-2.131-1.094l-50.068-54.323c-.737-.799-1.215-1.79-1.38-2.867l-10.313-66.869c-.626-4.063-4.418-6.845-8.492-6.223-4.063.627-6.849 4.429-6.222 8.492l10.313 66.868c.618 4.012 2.399 7.708 5.148 10.69l50.066 54.321c2.946 3.197 6.945 5.251 11.261 5.782l32.914 4.05c1.828.225 3.309 1.521 3.776 3.303l7.963 30.447-47.641-19.896c-3.45-1.441-6.765-3.239-9.853-5.344l-71.326-48.615c-1.987-1.354-3.455-3.371-4.131-5.678l-26.278-89.588c2.4-6.803 3.647-13.993 3.647-21.261 0 0-.012-54.066-.035-54.522 2.76 1.211 5.4 2.697 7.847 4.472l4.096 2.971c9.068 6.579 15.248 16.703 16.956 27.777 1.37 9.601 16.324 7.23 14.714-2.27-2.31-14.972-10.666-28.662-22.927-37.558l-4.096-2.971c-7.289-5.289-15.801-8.773-24.692-10.175-4.792-4.631-11.308-7.489-18.482-7.489h-20.19v-15.692c0-.024-.003-.047-.004-.071 3.498-3.877 6.422-8.286 8.611-13.034 6.759-2.115 12.988-7.614 16.966-15.226 3.112-5.957 4.424-12.508 3.695-18.447-.843-6.857-4.395-12.392-9.745-15.188-1.938-1.012-4.018-1.628-6.178-1.849v-.121-21.233c0-19.55-15.905-35.456-35.455-35.456h-30.443c-19.55 0-35.456 15.906-35.456 35.456v21.234.079c-2.296.184-4.511.814-6.571 1.89-5.35 2.796-8.902 8.331-9.745 15.188-.73 5.939.582 12.491 3.695 18.447 4.02 7.694 10.514 13.3 17.408 15.331 2.102 4.53 4.868 8.752 8.166 12.493v16.2h-20.19c-7.174 0-13.69 2.858-18.481 7.488-8.89 1.401-17.403 4.887-24.694 10.176l-4.095 2.971c-12.262 8.896-20.619 22.586-22.928 37.559l-15.591 101.093c-.166 1.075-.643 2.067-1.38 2.867l-50.068 54.323c-.557.604-1.314.993-2.13 1.093l-32.913 4.05c-7.92.975-14.343 6.593-16.362 14.314l-9.23 35.296c-1.07 4.092-.009 8.336 2.767 11.417-1.871 4.949-2.854 10.21-2.854 15.557 0 24.274 19.749 44.023 44.023 44.023h51.06c-1.865 4.068-2.384 8.711-1.319 13.178 1.879 8.861 12.451 13.98 20.565 9.941l28.531-13.304c6.348-2.96 13.106-4.757 20.09-5.341l53.057-4.473h251.325c24.274 0 44.023-19.749 44.023-44.023 0-5.336-.991-10.598-2.862-15.549 2.781-3.083 3.845-7.331 2.774-11.427zm-152.877-62.635 24.149 16.46c-14.006-1.933-28.142-2.916-42.297-2.916-.103 0-.203.011-.305.015l-2.756-4.554c-10.069-16.64-15.391-35.714-15.391-55.162v-16.055c0-8.685 1.701-17.263 4.955-25.257l21.612 73.679c1.645 5.605 5.207 10.501 10.033 13.79zm-125.352-210.412c6.617 5.524 14.724 8.295 22.835 8.295 7.951 0 15.898-2.663 22.442-7.97v12.778c0 5.973-4.86 10.833-10.833 10.833h-23.611c-5.973 0-10.833-4.86-10.833-10.833zm7.614-119.611h30.443c11.34 0 20.566 9.227 20.566 20.567v.314h-71.576v-.314c0-11.341 9.227-20.567 20.567-20.567zm-34.88 70.511c-1.703-3.259-2.473-6.808-2.113-9.736.202-3.955 3.095-4.856 5.735-3.302 2.307 1.118 5.027.971 7.2-.391 2.173-1.361 3.492-3.745 3.492-6.308v-15.004h71.576v14.818c0 2.53 1.285 4.887 3.412 6.258 2.127 1.37 4.804 1.567 7.109.521 2.547-1.443 5.325-.406 5.513 3.407.36 2.928-.41 6.477-2.113 9.736-2.689 5.147-6.861 8.01-9.592 8.179-2.959.183-5.528 2.104-6.539 4.891-1.921 5.293-5.082 10.144-9.143 14.027l-10.051 9.614c-8.065 7.715-20.702 7.714-28.767 0l-10.051-9.614c-4.059-3.882-7.22-8.731-9.141-14.025-1.044-2.875-3.739-4.819-6.796-4.901-2.754-.075-6.98-2.905-9.731-8.17zm-7.813 65.807h20.448c1.759 12.482 12.505 22.118 25.464 22.118h23.611c12.96 0 23.706-9.635 25.464-22.118h20.448c6.467 0 11.73 5.262 11.73 11.729v53.147c0 8.771-2.359 17.397-6.824 24.946-7.457 12.611-11.399 27.021-11.399 41.672v16.055c0 22.165 6.066 43.905 17.541 62.87l2.761 4.56-9.766 1.399c-40.98 5.872-82.538 5.873-123.519 0l-9.766-1.399 2.76-4.561c11.476-18.964 17.541-40.704 17.541-62.87v-16.055c0-14.65-3.942-29.06-11.399-41.672-4.464-7.55-6.824-16.176-6.824-24.946v-53.147c-.001-6.466 5.261-11.728 11.729-11.728zm-23.786 202.71-2.756 4.554c-.102-.004-.202-.016-.306-.016-14.165 0-28.308.999-42.323 2.934l24.176-16.478c4.826-3.289 8.389-8.186 10.032-13.791l21.612-73.678c3.254 7.993 4.955 16.572 4.955 25.257v16.055c.001 19.45-5.321 38.524-15.39 55.163zm-150.452 22.102c.466-1.782 1.948-3.079 3.777-3.303l32.913-4.05c4.315-.531 8.314-2.584 11.26-5.781l50.068-54.323c2.75-2.983 4.529-6.68 5.148-10.689l15.591-101.092c1.707-11.073 7.888-21.197 16.956-27.777l4.095-2.971c2.447-1.775 5.087-3.261 7.848-4.472-.023.455-.035 54.522-.035 54.522 0 7.268 1.248 14.458 3.648 21.261l-26.279 89.587c-.677 2.307-2.144 4.324-4.131 5.678l-71.327 48.615c-3.088 2.105-6.403 3.903-9.853 5.343l-47.64 19.897zm-8.833 58.503c0-4.461 1.036-8.828 2.984-12.805l45.547-19.023 25.153-1.358c20.608-1.114 41.269.639 61.399 5.204 1.244.222 8.066 1.997 9.201 1.898 3.399 0 6.469-2.344 7.253-5.799.91-4.01-1.603-7.997-5.612-8.907l-7.548-1.712c-20.005-4.538-40.496-6.466-60.983-5.75l5.256-3.583c23.208-5.987 47.096-9.119 71.063-9.323.023.05.037.103.061.153 1.745 3.688 5.199 6.235 9.237 6.813l13.905 1.992c21.191 3.036 42.532 4.554 63.871 4.554 21.341 0 42.68-1.518 63.871-4.554l13.905-1.992c4.038-.579 7.492-3.126 9.238-6.812.024-.05.038-.103.062-.154 23.965.205 47.852 3.336 71.06 9.322l5.259 3.584c-20.486-.715-40.977 1.212-60.982 5.75l-102.412 23.23-34.472-7.819c-10.972-6.159-24.86-4.065-33.488 5.24l-13.168 14.201c-1.359 1.465-3.071 2.596-4.952 3.271l-31.823 11.408c-6.527 2.34-12.375 5.959-17.382 10.758l-11.841 11.347h-64.528c-16.064 0-29.134-13.069-29.134-29.134zm146.816 33.659c-8.736.731-17.193 2.98-25.137 6.684l-28.36 13.225c-.364-1.805.223-3.696 1.558-4.975l20.928-20.056c3.487-3.342 7.56-5.862 12.105-7.492l31.823-11.408c4.119-1.477 7.869-3.953 10.845-7.162l13.168-14.201c4.268-4.65 11.329-5.228 16.445-1.703l11.791 7.364c3.495 2.183 7.261 3.915 11.192 5.147l.504.158v27.939zm305.627-4.525h-213.876v-32.634l107.927-24.481c20.131-4.566 40.787-6.318 61.399-5.204 0 0 24.701 1.311 24.993 1.292l45.713 19.092c1.947 3.977 2.979 8.352 2.979 12.802 0 16.064-13.07 29.133-29.135 29.133z"/></g></svg>