<svg id="Capa_1" enable-background="new 0 0 505.139 505.139" height="512" viewBox="0 0 505.139 505.139" width="512" xmlns="http://www.w3.org/2000/svg"><g><path d="m489.637 84.399h-60.376c-4.142 0-7.5 3.358-7.5 7.5s3.358 7.5 7.5 7.5h60.376c.3 0 .501.255.5.532-.969 15.67-2.084 30.427-3.23 44.312h-468.674c-1.147-13.906-2.264-28.679-3.233-44.351 0-.238.202-.493.501-.493h378.76c4.142 0 7.5-3.358 7.5-7.5s-3.358-7.5-7.5-7.5h-378.76c-8.547 0-15.501 6.95-15.501 15.493 0 .317.01.637.03.965 1.242 20.071 2.772 39.475 4.531 59.677 4.113 47.308 5.907 80.461 31.236 125.333 2.036 3.608 6.612 4.881 10.218 2.845 3.607-2.036 4.88-6.611 2.844-10.218-9.694-17.172-16.814-35.333-21.329-54.25h450.071c-.015.062-.028.125-.043.188-14.858 61.797-56.161 112.816-113.448 140.225h-223.082c-28.342-13.572-53.65-33.668-73.271-58.197-2.588-3.234-7.308-3.759-10.542-1.172s-3.759 7.307-1.172 10.542c20.394 25.496 46.53 46.505 75.797 61.016v19.86c0 13.252 10.781 24.033 24.034 24.033h193.389c13.252 0 24.033-10.781 24.033-24.033v-19.859c28.744-14.253 54.508-34.804 74.723-59.685 31.571-38.859 39.621-74.221 44.126-89.24 5.789-24.088 11.536-104 12.963-127.073.02-.321.029-.641.029-.958.002-8.542-6.952-15.492-15.5-15.492zm-131.34 312.308c0 4.981-4.052 9.033-9.033 9.033h-193.389c-4.981 0-9.034-4.052-9.034-9.033v-17.049h211.456zm127.325-237.318c-3.278 37.649-3.576 41.116-5.006 49.854h-456.093c-1.105-6.755-1.64-11.099-5.018-50h466.13c-.005.049-.009.097-.013.146z"/></g></svg>