<?xml version="1.0" encoding="iso-8859-1"?>
<!-- Generator: Adobe Illustrator 19.0.0, SVG Export Plug-In . SVG Version: 6.00 Build 0)  -->
<svg version="1.1" id="Layer_1" xmlns="http://www.w3.org/2000/svg" xmlns:xlink="http://www.w3.org/1999/xlink" x="0px" y="0px"
	 viewBox="0 0 512 512" style="enable-background:new 0 0 512 512;" xml:space="preserve">
<g>
	<g>
		<path d="M467.874,112.273c-28.171-41.452-67.438-73.51-113.551-92.707c-5.098-2.124-10.96,0.29-13.084,5.392
			c-2.124,5.102,0.29,10.961,5.392,13.086c88.299,36.76,145.353,122.314,145.353,217.957c0,130.124-105.862,235.985-235.985,235.985
			S20.015,386.122,20.015,256S125.876,20.015,256,20.015c5.527,0,10.007-4.481,10.007-10.007C266.007,4.481,261.527,0,256,0
			C114.84,0,0,114.84,0,256s114.84,256,256,256s256-114.84,256-256C512,204.448,496.742,154.748,467.874,112.273z"/>
	</g>
</g>
<g>
	<g>
		<path d="M212.878,136.431c-23.944,0-43.424,19.48-43.424,43.424c0,5.527,4.481,10.007,10.007,10.007
			c5.527,0,10.007-4.479,10.007-10.007c0-12.908,10.502-23.409,23.409-23.409s23.409,10.501,23.409,23.409
			c0,5.527,4.481,10.007,10.007,10.007c5.527,0,10.007-4.481,10.007-10.007C256.302,155.911,236.822,136.431,212.878,136.431z"/>
	</g>
</g>
<g>
	<g>
		<path d="M381.9,136.432c-23.944,0-43.424,19.48-43.424,43.424c0,5.527,4.481,10.007,10.007,10.007
			c5.527,0,10.007-4.481,10.007-10.007c0-12.908,10.502-23.409,23.409-23.409c12.907,0,23.409,10.501,23.409,23.409
			c0,5.527,4.481,10.007,10.007,10.007s10.007-4.481,10.007-10.007C425.324,155.912,405.845,136.432,381.9,136.432z"/>
	</g>
</g>
<g>
	<g>
		<path d="M420.549,297.002H163.034c-5.527,0-10.007,4.481-10.007,10.007c0,76.515,62.25,138.765,138.765,138.765
			s138.765-62.25,138.765-138.765C430.556,301.483,426.076,297.002,420.549,297.002z M410.124,317.017
			c-5.097,60.815-56.223,108.742-118.332,108.742s-113.235-47.927-118.332-108.743L410.124,317.017L410.124,317.017z"/>
	</g>
</g>
<g>
	<g>
		<circle cx="315.645" cy="17.506" r="10.007"/>
	</g>
</g>
<g>
</g>
<g>
</g>
<g>
</g>
<g>
</g>
<g>
</g>
<g>
</g>
<g>
</g>
<g>
</g>
<g>
</g>
<g>
</g>
<g>
</g>
<g>
</g>
<g>
</g>
<g>
</g>
<g>
</g>
</svg>
