<?xml version="1.0" encoding="iso-8859-1"?>
<!-- Generator: Adobe Illustrator 19.0.0, SVG Export Plug-In . SVG Version: 6.00 Build 0)  -->
<svg version="1.1" id="Layer_1" xmlns="http://www.w3.org/2000/svg" xmlns:xlink="http://www.w3.org/1999/xlink" x="0px" y="0px"
	 viewBox="0 0 512 512" style="enable-background:new 0 0 512 512;" xml:space="preserve">
<path style="fill:#FDDF6D;" d="M501.993,256c0,135.858-110.134,245.993-245.993,245.993S10.007,391.858,10.007,256
	S120.142,10.007,256,10.007c32.712,0,63.934,6.385,92.485,17.977C438.51,64.535,501.993,152.855,501.993,256z"/>
<path style="fill:#FCC56B;" d="M308.715,465.678c-135.858,0-245.993-110.134-245.993-245.993
	c0-72.584,31.443-137.816,81.444-182.842C64.527,77.562,10.007,160.414,10.007,256c0,135.858,110.134,245.993,245.993,245.993
	c63.274,0,120.962-23.898,164.549-63.149C386.996,455.999,348.987,465.678,308.715,465.678z"/>
<g>
	<path style="fill:#7F184C;" d="M246.294,189.862c-5.527,0-10.007-4.481-10.007-10.007c0-12.908-10.501-23.409-23.409-23.409
		c-12.908,0-23.409,10.502-23.409,23.409c0,5.527-4.481,10.007-10.007,10.007c-5.527,0-10.007-4.481-10.007-10.007
		c0-23.944,19.481-43.424,43.424-43.424s43.424,19.48,43.424,43.424C256.302,185.381,251.821,189.862,246.294,189.862z"/>
	<path style="fill:#7F184C;" d="M415.317,189.862c-5.527,0-10.007-4.481-10.007-10.007c0-12.908-10.501-23.409-23.409-23.409
		c-12.908,0-23.409,10.502-23.409,23.409c0,5.527-4.481,10.007-10.007,10.007s-10.007-4.481-10.007-10.007
		c0-23.944,19.481-43.424,43.424-43.424c23.943,0,43.424,19.48,43.424,43.424C425.324,185.381,420.844,189.862,415.317,189.862z"/>
</g>
<path style="fill:#FFFFFF;" d="M291.792,435.767L291.792,435.767c-71.111,0-128.757-57.646-128.757-128.757l0,0h257.514l0,0
	C420.549,378.12,362.902,435.767,291.792,435.767z"/>
<g>
	<path style="fill:#F9A880;" d="M150.288,240.771c-18.268,0-33.078,14.81-33.078,33.078h66.157
		C183.365,255.581,168.556,240.771,150.288,240.771z"/>
	<path style="fill:#F9A880;" d="M438.814,240.771c-18.268,0-33.079,14.81-33.079,33.078h66.157
		C471.893,255.581,457.084,240.771,438.814,240.771z"/>
</g>
<path style="fill:#E6E6E6;" d="M175.693,362.749c3.393,7.054,7.416,13.746,11.985,20.015h208.228
	c4.569-6.269,8.592-12.96,11.985-20.015H175.693z"/>
<path d="M467.874,112.273c-28.171-41.452-67.438-73.51-113.551-92.707c-5.098-2.124-10.96,0.29-13.084,5.392
	s0.29,10.961,5.392,13.086c88.299,36.76,145.353,122.314,145.353,217.957c0,130.124-105.862,235.985-235.985,235.985
	S20.015,386.122,20.015,256S125.876,20.015,256,20.015c5.527,0,10.007-4.481,10.007-10.007S261.527,0,256,0C114.84,0,0,114.84,0,256
	s114.84,256,256,256s256-114.84,256-256C512,204.447,496.742,154.748,467.874,112.273z"/>
<path d="M189.468,179.855c0-12.908,10.502-23.409,23.409-23.409s23.409,10.501,23.409,23.409c0,5.527,4.481,10.007,10.007,10.007
	c5.527,0,10.007-4.481,10.007-10.007c0-23.944-19.48-43.424-43.424-43.424s-43.424,19.48-43.424,43.424
	c0,5.527,4.481,10.007,10.007,10.007C184.988,189.862,189.468,185.383,189.468,179.855z"/>
<path d="M381.9,136.432c-23.944,0-43.424,19.48-43.424,43.424c0,5.527,4.481,10.007,10.007,10.007s10.007-4.481,10.007-10.007
	c0-12.908,10.502-23.409,23.409-23.409c12.907,0,23.409,10.501,23.409,23.409c0,5.527,4.481,10.007,10.007,10.007
	s10.007-4.481,10.007-10.007C425.324,155.912,405.845,136.432,381.9,136.432z"/>
<path d="M153.027,307.009c0,76.515,62.25,138.765,138.765,138.765s138.765-62.25,138.765-138.765
	c0-5.527-4.481-10.007-10.007-10.007H163.034C157.508,297.002,153.027,301.483,153.027,307.009z M410.124,317.017
	c-5.097,60.815-56.223,108.743-118.332,108.743s-113.235-47.927-118.332-108.743L410.124,317.017L410.124,317.017z"/>
<circle cx="315.645" cy="17.506" r="10.007"/>
<g>
</g>
<g>
</g>
<g>
</g>
<g>
</g>
<g>
</g>
<g>
</g>
<g>
</g>
<g>
</g>
<g>
</g>
<g>
</g>
<g>
</g>
<g>
</g>
<g>
</g>
<g>
</g>
<g>
</g>
</svg>
