<svg id="Layer_1" enable-background="new 0 0 512.003 512.003" height="512" viewBox="0 0 512.003 512.003" width="512"
  xmlns="http://www.w3.org/2000/svg">
  <g>
    <g>
      <path
        d="m256.002 282.001c-49.626 0-90 40.374-90 90s40.374 90 90 90 90-40.374 90-90-40.374-90-90-90zm0 160.001c-38.598 0-70-31.402-70-70s31.402-70 70-70 70 31.402 70 70-31.402 70-70 70z" />
      <path
        d="m510.662 5c-1.786-3.094-5.088-5-8.66-5h-173.205c-3.572 0-6.874 1.906-8.66 5l-64.135 111.086-64.136-111.086c-1.786-3.094-5.087-5-8.66-5h-173.205c-3.573 0-6.874 1.906-8.66 5-1.787 3.094-1.787 6.906 0 10l151.7 262.753c-1.736 2.584-3.117 5.431-4.04 8.485l-3.432 11.359-10.15 8.782c-7.928 6.742-12.054 16.943-11.035 27.302l1.174 11.788-5.845 11.653c-4.958 9.344-4.953 20.474.033 29.82l5.536 10.329-.927 12.816c-1.131 10.702 3.15 21.136 11.476 27.947l9.205 7.537 3.547 10.688c2.705 10.825 10.961 19.514 21.655 22.744l11.359 3.432 8.781 10.15c6.741 7.929 16.943 12.055 27.303 11.036l11.788-1.175 11.65 5.844c4.664 2.476 9.771 3.714 14.881 3.714 5.128 0 10.259-1.248 14.94-3.745l10.329-5.536 12.815.927c10.702 1.129 21.137-3.149 27.948-11.476l7.538-9.206 10.688-3.547c10.824-2.704 19.513-10.96 22.744-21.655l3.431-11.358 10.15-8.782c7.929-6.741 12.055-16.943 11.036-27.303l-1.176-11.787 5.846-11.652c4.959-9.343 4.953-20.472-.032-29.82l-5.536-10.33.927-12.816c1.13-10.701-3.151-21.135-11.476-27.946l-9.205-7.538-3.548-10.688c-.903-3.612-2.435-6.978-4.458-9.99l151.701-262.756c1.786-3.094 1.786-6.906 0-10zm-214.248 181.083 95.888-166.083h34.643l-113.21 196.085zm38.156-166.083h34.638l-84.341 146.083-17.319-29.997zm-29.431 221.195c-3.49-.875-7.142-1.173-10.817-.81l-11.788 1.174-11.652-5.845c-1.527-.81-3.104-1.474-4.711-2.019l-123.375-213.695h34.637zm-243.175-221.195 44.317 76.759c1.852 3.208 5.213 5.002 8.669 5.002 1.696 0 3.416-.433 4.991-1.342 4.783-2.761 6.422-8.877 3.66-13.66l-38.543-66.759h34.644l123.874 214.558c-.849.362-1.69.749-2.514 1.188l-10.329 5.537-12.815-.927c-1.911-.202-3.813-.224-5.688-.088l-43.621-75.554c-2.762-4.783-8.878-6.423-13.66-3.66-4.783 2.761-6.422 8.877-3.66 13.66l42.345 73.344c-1.307 1.148-2.538 2.4-3.663 3.774l-7.538 9.205-10.688 3.548c-.929.232-1.836.52-2.732.832l-141.691-245.417zm301.541 301.447c3.107 2.543 4.695 6.45 4.245 10.452-.015.131-.027.263-.036.395l-1.149 15.886c-.137 1.889.266 3.777 1.16 5.446l6.896 12.866c1.847 3.462 1.838 7.598-.023 11.065-.044.082-.086.164-.128.246l-7.201 14.355c-.849 1.693-1.2 3.592-1.013 5.476l1.462 14.659c.376 3.825-1.152 7.599-4.153 10.151l-12.407 10.734c-1.432 1.239-2.482 2.858-3.03 4.67l-4.269 14.133c-1.217 4.027-4.522 7.122-8.627 8.079-.297.069-.59.152-.88.248l-13.831 4.591c-1.797.596-3.388 1.69-4.587 3.155l-9.377 11.451c-2.542 3.107-6.445 4.695-10.451 4.245-.132-.015-.264-.027-.396-.037l-15.887-1.149c-1.894-.136-3.776.266-5.445 1.16l-12.866 6.896c-3.462 1.846-7.597 1.837-11.065-.024-.081-.043-.163-.086-.246-.127l-14.355-7.201c-1.396-.7-2.932-1.062-4.484-1.062-.33 0-.661.016-.992.049l-14.659 1.461c-3.825.376-7.599-1.152-10.151-4.153l-10.734-12.407c-1.239-1.432-2.858-2.483-4.67-3.03l-14.134-4.27c-4.026-1.216-7.122-4.521-8.079-8.626-.069-.296-.152-.59-.248-.879l-4.59-13.832c-.597-1.797-1.691-3.388-3.156-4.587l-11.451-9.376c-3.108-2.543-4.695-6.45-4.245-10.452.015-.131.027-.264.037-.396l1.149-15.887c.136-1.888-.266-3.776-1.16-5.445l-6.896-12.866c-1.846-3.461-1.837-7.597.023-11.064.044-.081.086-.163.127-.246l7.201-14.355c.849-1.692 1.2-3.591 1.012-5.475l-1.46-14.66c-.376-3.825 1.152-7.599 4.153-10.151l12.407-10.734c1.432-1.239 2.483-2.858 3.03-4.67l4.27-14.134c1.216-4.025 4.521-7.121 8.626-8.078.296-.069.59-.152.879-.248l13.831-4.591c1.797-.596 3.387-1.69 4.587-3.155l9.376-11.451c2.542-3.108 6.451-4.693 10.452-4.245.131.015.263.027.396.037l15.887 1.149c1.889.135 3.777-.266 5.446-1.16l12.866-6.896c3.46-1.847 7.596-1.837 11.065.024.081.043.163.086.245.127l14.355 7.201c1.692.849 3.591 1.202 5.475 1.012l14.66-1.46c3.832-.379 7.599 1.152 10.151 4.153l10.733 12.407c1.238 1.432 2.858 2.482 4.67 3.03l14.135 4.271c4.025 1.215 7.12 4.521 8.077 8.625.069.296.152.59.248.879l4.591 13.832c.597 1.797 1.69 3.388 3.155 4.587zm-20.514-56.031c-.319-.111-.638-.225-.962-.326l-16.747-29.006 124.757-216.084h34.642z" />
      <path
        d="m137.446 120.737h-.008c-5.523 0-9.996 4.477-9.996 10s4.481 10 10.004 10 10-4.477 10-10-4.477-10-10-10z" />
    </g>
  </g>
</svg>