<svg id="Layer_1" enable-background="new 0 0 512.003 512.003" height="512" viewBox="0 0 512.003 512.003" width="512" xmlns="http://www.w3.org/2000/svg"><g><g><path d="m256.002 282.002c-49.626 0-90 40.374-90 90s40.374 90 90 90 90-40.374 90-90-40.374-90-90-90zm0 160c-38.598 0-70-31.402-70-70s31.402-70 70-70 70 31.402 70 70-31.402 70-70 70z"/><path d="m510.662 5c-1.786-3.094-5.087-5-8.66-5h-173.205c-3.573 0-6.874 1.906-8.66 5l-64.135 111.086-64.136-111.086c-1.786-3.094-5.087-5-8.66-5h-173.205c-3.573 0-6.874 1.906-8.66 5-1.787 3.094-1.787 6.906 0 10l151.7 262.753c-1.736 2.584-3.117 5.431-4.039 8.485l-3.432 11.359-10.149 8.78c-7.93 6.741-12.056 16.944-11.036 27.303l1.174 11.788-5.845 11.651c-4.959 9.345-4.953 20.475.032 29.822l5.537 10.328-.927 12.815c-1.131 10.702 3.15 21.137 11.476 27.947l9.205 7.537 3.548 10.688c2.705 10.825 10.961 19.515 21.654 22.744l11.359 3.431 8.782 10.15c6.741 7.929 16.941 12.045 27.303 11.036l11.787-1.175 11.652 5.845c4.664 2.476 9.77 3.713 14.88 3.713 5.127 0 10.258-1.248 14.939-3.744l10.33-5.537 12.816.927c10.7 1.128 21.134-3.149 27.947-11.476l7.537-9.205 10.688-3.548c10.826-2.705 19.514-10.962 22.743-21.654l3.432-11.359 10.15-8.781c7.929-6.742 12.055-16.944 11.035-27.303l-1.174-11.787 5.845-11.652c4.958-9.344 4.953-20.473-.032-29.819l-5.536-10.33.927-12.814c1.131-10.701-3.15-21.136-11.476-27.949l-9.205-7.538-3.547-10.687c-.903-3.612-2.435-6.978-4.459-9.991l151.7-262.753c1.787-3.094 1.787-6.906 0-10zm-214.248 181.083 95.888-166.083h34.643l-113.21 196.084zm38.157-166.083h34.638l-84.341 146.083-17.319-29.997zm-29.43 221.199c-3.489-.874-7.142-1.173-10.819-.815l-11.788 1.175-11.653-5.846c-1.526-.81-3.104-1.473-4.71-2.018l-123.376-213.695h34.638zm-243.176-221.199 44.317 76.76c1.852 3.208 5.213 5.002 8.669 5.002 1.696 0 3.416-.433 4.991-1.342 4.783-2.762 6.422-8.877 3.66-13.66l-38.544-66.76h34.643l123.875 214.558c-.849.362-1.691.749-2.515 1.188l-10.329 5.536-12.815-.927c-1.912-.203-3.814-.225-5.689-.09l-43.621-75.553c-2.761-4.783-8.878-6.422-13.66-3.66-4.783 2.762-6.422 8.877-3.66 13.66l42.345 73.343c-1.307 1.148-2.538 2.401-3.663 3.775l-7.537 9.205-10.688 3.548c-.93.232-1.837.52-2.733.832l-141.689-245.415zm301.539 301.446c3.108 2.544 4.696 6.451 4.246 10.453-.015.132-.027.264-.037.396l-1.149 15.886c-.136 1.889.266 3.776 1.16 5.445l6.896 12.867c1.846 3.462 1.837 7.598-.024 11.063-.044.082-.086.164-.128.247l-7.201 14.355c-.849 1.692-1.2 3.591-1.012 5.475l1.46 14.659c.376 3.824-1.152 7.599-4.153 10.151l-12.407 10.733c-1.432 1.238-2.482 2.858-3.03 4.67l-4.271 14.135c-1.215 4.025-4.521 7.12-8.625 8.077-.296.069-.59.152-.879.248l-13.832 4.591c-1.797.597-3.388 1.691-4.587 3.156l-9.375 11.45c-2.543 3.108-6.451 4.702-10.452 4.245-.132-.015-.265-.027-.397-.036l-15.886-1.148c-1.888-.138-3.777.265-5.445 1.159l-12.867 6.896c-3.462 1.846-7.598 1.836-11.064-.024-.082-.044-.164-.087-.247-.128l-14.355-7.2c-1.396-.7-2.931-1.062-4.483-1.062-.33 0-.661.017-.992.049l-14.659 1.461c-3.818.376-7.599-1.151-10.151-4.153l-10.734-12.407c-1.239-1.432-2.858-2.482-4.67-3.03l-14.134-4.27c-4.025-1.216-7.121-4.521-8.078-8.625-.069-.297-.152-.591-.248-.88l-4.591-13.832c-.596-1.797-1.69-3.387-3.155-4.587l-11.452-9.377c-3.107-2.542-4.694-6.449-4.244-10.451.015-.132.027-.264.037-.396l1.149-15.886c.137-1.889-.266-3.777-1.16-5.446l-6.896-12.865c-1.846-3.462-1.837-7.599.024-11.066.043-.081.085-.162.127-.244l7.201-14.354c.849-1.692 1.2-3.592 1.012-5.476l-1.46-14.661c-.376-3.824 1.151-7.598 4.153-10.15l12.407-10.733c1.432-1.238 2.483-2.858 3.03-4.671l4.27-14.134c1.216-4.026 4.521-7.121 8.625-8.077.297-.069.591-.152.88-.248l13.832-4.591c1.797-.597 3.388-1.691 4.587-3.156l9.376-11.451c2.543-3.107 6.455-4.699 10.451-4.244.132.015.265.027.397.036l15.886 1.148c1.887.135 3.776-.265 5.445-1.16l12.866-6.896c3.46-1.847 7.598-1.837 11.065.024.081.043.163.086.245.127l14.355 7.201c1.692.849 3.589 1.197 5.476 1.013l14.66-1.461c3.816-.385 7.599 1.151 10.151 4.153l10.734 12.407c1.239 1.432 2.858 2.482 4.67 3.03l14.134 4.27c4.025 1.216 7.121 4.521 8.078 8.625.069.297.152.591.248.88l4.591 13.831c.596 1.797 1.69 3.388 3.155 4.587zm-20.513-56.03c-.319-.111-.638-.225-.962-.326l-16.747-29.006 124.757-216.084h34.642z"/><path d="m137.446 120.737h-.007c-5.523 0-9.996 4.478-9.996 10s4.48 10 10.003 10 10-4.478 10-10-4.477-10-10-10z"/><path d="m281.025 352.002c0-16.542-13.417-30-29.907-30-8.746 0-17.027 3.824-22.721 10.493-3.586 4.2-3.088 10.512 1.111 14.098 4.201 3.586 10.513 3.088 14.099-1.111 1.888-2.211 4.626-3.479 7.511-3.479 5.463 0 9.907 4.486 9.907 10 0 2.717-1.062 5.259-2.991 7.157-2.133 2.101-3.213 5.045-2.943 8.026.27 2.98 1.86 5.685 4.335 7.368 4.118 2.801 6.576 7.455 6.576 12.448 0 8.271-6.677 15-14.884 15-3.291 0-6.41-1.061-9.019-3.068-4.379-3.367-10.657-2.548-14.023 1.83-3.367 4.377-2.548 10.656 1.829 14.023 6.137 4.72 13.472 7.215 21.213 7.215 19.235 0 34.884-15.701 34.884-35 0-8.172-2.833-15.954-7.852-22.125 1.882-3.969 2.875-8.342 2.875-12.875z"/></g></g></svg>